<svg xmlns="http://www.w3.org/2000/svg" xmlns:xlink="http://www.w3.org/1999/xlink" width="116" height="8" viewBox="0 0 116 8">
    <defs>
        <filter id="prefix__a" width="119.4%" height="131.2%" x="-9.7%" y="-11.6%" filterUnits="objectBoundingBox">
            <feOffset dy="8" in="SourceAlpha" result="shadowOffsetOuter1"/>
            <feGaussianBlur in="shadowOffsetOuter1" result="shadowBlurOuter1" stdDeviation="9"/>
            <feComposite in="shadowBlurOuter1" in2="SourceAlpha" operator="out" result="shadowBlurOuter1"/>
            <feColorMatrix in="shadowBlurOuter1" values="0 0 0 0 0 0 0 0 0 0.0980392157 0 0 0 0 0.282352941 0 0 0 0.08 0"/>
        </filter>
        <path id="prefix__b" d="M2 0h316c1.105 0 2 .895 2 2v197H0V2C0 .895.895 0 2 0z"/>
    </defs>
    <g fill="none" fill-rule="evenodd">
        <g>
            <path fill="#FFF" d="M0 0H360V1682H0z" transform="translate(-122 -414)"/>
            <g transform="translate(-122 -414) translate(20 360)">
                <use fill="#000" filter="url(#prefix__a)" xlink:href="#prefix__b"/>
                <path fill="#FFF" stroke="#D9DBE1" stroke-linejoin="square" d="M318 .5H2C1.586.5 1.21.668.94.94.667 1.21.5 1.585.5 2v196.5h319V2c0-.414-.168-.79-.44-1.06-.27-.272-.646-.44-1.06-.44z"/>
                <g fill="#767676">
                    <g transform="translate(20 34) translate(82 20)">
                        <path d="M108 5L108 0 116 5z"/>
                        <rect width="113.171" height="1" y="4" rx=".5" transform="matrix(1 0 0 -1 0 9)"/>
                    </g>
                </g>
            </g>
        </g>
    </g>
</svg>
